<svg height="64" viewBox="0 0 64 64" width="64" xmlns="http://www.w3.org/2000/svg"><g fill="#000" fill-rule="evenodd"><path d="m11 18h8c.552 0 1-.448 1-1s-.448-1-1-1h-8c-.552 0-1 .448-1 1s.448 1 1 1z"/><path d="m11 14h8c.552 0 1-.448 1-1s-.448-1-1-1h-8c-.552 0-1 .448-1 1s.448 1 1 1z"/><path d="m9 26h.754l-3.73 16.783c-.008.037.002.072-.002.109s-.022.07-.022.108v10c0 1.654 1.346 3 3 3h16c1.654 0 3-1.346 3-3v-8c0-1.654-1.346-3-3-3h-6-.625c-.896 0-1.625-.729-1.625-1.625 0-.155.021-.309.081-.524l1.687-7.851h4.482c.404 0 .769-.244.924-.618s.069-.804-.217-1.09c-.92-.919-.219-2.424.867-4.292h10.426c2.414 0 4.434-1.721 4.899-4h5.101c1.654 0 3-1.346 3-3v-1h11c.552 0 1-.448 1-1s-.448-1-1-1h-11v-1c0-1.654-1.346-3-3-3h-5.101c-.465-2.279-2.484-4-4.899-4h-26c-2.757 0-5 2.243-5 5v8c0 2.757 2.243 5 5 5zm10 18h6c.551 0 1 .449 1 1v8c0 .551-.449 1-1 1h-16c-.551 0-1-.449-1-1v-9h10.375zm-10.754-2 3.556-16h5.961l-2.87 13.363c-.095.328-.143.668-.143 1.012 0 .587.154 1.134.402 1.625zm13.101-12h-2.399l.86-4h2.475c-.655 1.247-1.209 2.676-.936 4zm24.653-15v4c0 .551-.449 1-1 1h-5v-6h5c.551 0 1 .449 1 1zm-40-2c0-1.654 1.346-3 3-3h26c1.654 0 3 1.346 3 3v8c0 1.654-1.346 3-3 3h-26c-1.654 0-3-1.346-3-3z"/></g></svg>